<svg width="25" height="22" viewBox="0 0 25 22" fill="none" xmlns="http://www.w3.org/2000/svg">
<path d="M14.5592 6.96812C14.3421 6.96812 14.1655 6.79184 14.1655 6.57437V5.90522C14.1655 5.68803 14.3418 5.51147 14.5592 5.51147C14.7764 5.51147 14.953 5.68775 14.953 5.90522V6.57437C14.953 6.79184 14.7764 6.96812 14.5592 6.96812Z" fill="#103E13"/>
<path d="M12.9038 6.96812C12.6866 6.96812 12.5101 6.79184 12.5101 6.57437V5.90522C12.5101 5.68803 12.6863 5.51147 12.9038 5.51147C13.121 5.51147 13.2976 5.68775 13.2976 5.90522V6.57437C13.2973 6.79184 13.1213 6.96812 12.9038 6.96812Z" fill="#103E13"/>
<path d="M11.2485 6.96812C11.0313 6.96812 10.8548 6.79184 10.8548 6.57437V5.90522C10.8548 5.68803 11.031 5.51147 11.2485 5.51147C11.4657 5.51147 11.6423 5.68775 11.6423 5.90522V6.57437C11.6423 6.79184 11.466 6.96812 11.2485 6.96812Z" fill="#103E13"/>
<path d="M14.5592 9.70466C14.3421 9.70466 14.1655 9.52838 14.1655 9.31091V8.64204C14.1655 8.42485 14.3418 8.24829 14.5592 8.24829C14.7764 8.24829 14.953 8.42457 14.953 8.64204V9.31091C14.953 9.52838 14.7764 9.70466 14.5592 9.70466Z" fill="#103E13"/>
<path d="M12.9038 9.70466C12.6866 9.70466 12.5101 9.52838 12.5101 9.31091V8.64204C12.5101 8.42485 12.6863 8.24829 12.9038 8.24829C13.121 8.24829 13.2976 8.42457 13.2976 8.64204V9.31091C13.2973 9.52838 13.1213 9.70466 12.9038 9.70466Z" fill="#103E13"/>
<path d="M11.2485 9.70466C11.0313 9.70466 10.8548 9.52838 10.8548 9.31091V8.64204C10.8548 8.42485 11.031 8.24829 11.2485 8.24829C11.4657 8.24829 11.6423 8.42457 11.6423 8.64204V9.31091C11.6423 9.52838 11.466 9.70466 11.2485 9.70466Z" fill="#103E13"/>
<path d="M14.5592 12.441C14.3421 12.441 14.1655 12.2647 14.1655 12.0473V11.3781C14.1655 11.1609 14.3418 10.9844 14.5592 10.9844C14.7764 10.9844 14.953 11.1607 14.953 11.3781V12.0473C14.953 12.2647 14.7764 12.441 14.5592 12.441Z" fill="#103E13"/>
<path d="M12.9038 12.441C12.6866 12.441 12.5101 12.2647 12.5101 12.0473V11.3781C12.5101 11.1609 12.6863 10.9844 12.9038 10.9844C13.121 10.9844 13.2976 11.1607 13.2976 11.3781V12.0473C13.2973 12.2647 13.1213 12.441 12.9038 12.441Z" fill="#103E13"/>
<path d="M11.2485 12.441C11.0313 12.441 10.8548 12.2647 10.8548 12.0473V11.3781C10.8548 11.1609 11.031 10.9844 11.2485 10.9844C11.4657 10.9844 11.6423 11.1607 11.6423 11.3781V12.0473C11.6423 12.2647 11.466 12.441 11.2485 12.441Z" fill="#103E13"/>
<path d="M14.5592 15.1769C14.3421 15.1769 14.1655 15.0006 14.1655 14.7831V14.114C14.1655 13.8968 14.3418 13.7202 14.5592 13.7202C14.7764 13.7202 14.953 13.8965 14.953 14.114V14.7831C14.953 15.0006 14.7764 15.1769 14.5592 15.1769Z" fill="#103E13"/>
<path d="M12.9038 15.1769C12.6866 15.1769 12.5101 15.0006 12.5101 14.7831V14.114C12.5101 13.8968 12.6863 13.7202 12.9038 13.7202C13.121 13.7202 13.2976 13.8965 13.2976 14.114V14.7831C13.2973 15.0006 13.1213 15.1769 12.9038 15.1769Z" fill="#103E13"/>
<path d="M11.2485 15.1769C11.0313 15.1769 10.8548 15.0006 10.8548 14.7831V14.114C10.8548 13.8968 11.031 13.7202 11.2485 13.7202C11.4657 13.7202 11.6423 13.8965 11.6423 14.114V14.7831C11.6423 15.0006 11.466 15.1769 11.2485 15.1769Z" fill="#103E13"/>
<path d="M14.5592 17.9134C14.3421 17.9134 14.1655 17.7371 14.1655 17.5197V16.8508C14.1655 16.6336 14.3418 16.457 14.5592 16.457C14.7764 16.457 14.953 16.6333 14.953 16.8508V17.5197C14.953 17.7368 14.7764 17.9134 14.5592 17.9134Z" fill="#103E13"/>
<path d="M12.9038 17.9134C12.6866 17.9134 12.5101 17.7371 12.5101 17.5197V16.8508C12.5101 16.6336 12.6863 16.457 12.9038 16.457C13.121 16.457 13.2976 16.6333 13.2976 16.8508V17.5197C13.2973 17.7368 13.1213 17.9134 12.9038 17.9134Z" fill="#103E13"/>
<path d="M11.2485 17.9134C11.0313 17.9134 10.8548 17.7371 10.8548 17.5197L10.855 16.8508C10.855 16.6336 11.0313 16.457 11.2488 16.457C11.466 16.457 11.6425 16.6333 11.6425 16.8508V17.5197C11.6423 17.7368 11.466 17.9134 11.2485 17.9134Z" fill="#103E13"/>
<path d="M0.000330352 20.6365C0.000330352 20.8537 0.176609 21.0302 0.394079 21.0302H24.3721C24.5893 21.0302 24.7659 20.8539 24.7659 20.6365C24.7659 20.4193 24.5896 20.2427 24.3721 20.2427H23.6442V8.93765C23.6442 8.72046 23.468 8.5439 23.2505 8.5439L16.8218 8.54417V0.39381C16.8218 0.255974 16.7498 0.12857 16.6323 0.0571744C16.5151 -0.0144884 16.3685 -0.0188814 16.2465 0.0445438L8.93757 3.84994C8.80715 3.91777 8.72588 4.05231 8.72588 4.19921V11.3184H1.65238C1.4352 11.3184 1.25864 11.4947 1.25864 11.7121V20.2428H0.393201C0.176012 20.2425 0 20.4188 0 20.6363L0.000330352 20.6365ZM16.8219 14.5076H22.8571V20.243L16.8219 20.2428V14.5076ZM16.8219 11.7714H22.8571V13.7204L16.8219 13.7202V11.7714ZM16.8219 9.33125H22.8571V10.9845H16.8219V9.33125ZM9.51296 4.4383L16.0342 1.04284V20.2424H9.51296V4.4383ZM3.99257 17.0979C3.99257 16.2808 4.64002 15.6157 5.43602 15.6157C6.23201 15.6157 6.87975 16.2805 6.87975 17.0979V20.2429H3.99257V17.0979ZM2.04611 12.1058H8.72576V20.2428H7.66723V17.0978C7.66723 15.8465 6.66669 14.8284 5.43602 14.8284C4.2059 14.8284 3.20537 15.8462 3.20537 17.0978V20.2428H2.04611V12.1058Z" fill="#103E13"/>
</svg>
